# xmcd CD database file
#
# Track frame offsets:
#	150
#	32120
#	68708
#
# Disc length: 1309 seconds
#
# Revision: 0
# Processed by: cddbd v1.5.1PL2 Copyright (c) Steve Scherf et al.
# Submitted via: CDex 1.60beta1
#
DISCID=20051b03
DTITLE=rabel μD - Quiet Life
DYEAR=1900
DGENRE=未分類 (日本)
TTITLE0=Quiet Life
TTITLE1=Steel Cathedral
TTITLE2=SEA-WAVE (05-mix)
EXTD=
EXTT0=
EXTT1=
EXTT2=
PLAYORDER=
